#!OML:ASF E:\acrobat2\Project_11_07_03\Capture day 1\Session 1\Acrobat.ASF
:FULLY-SPECIFIED
:DEGREES
1
root 8.81169 17.8452 -27.8162 -8.81962 -85.9597 12.181
lowerback -8.80558 0.211538 -1.39885
upperback 0.250577 0.437577 -0.399818
thorax 5.19668 0.179625 0.427937
lowerneck -1.14278 6.632 -0.666122
upperneck 0.876383 8.83598 1.62701
head 0.346588 4.42446 0.64805
rclavicle -6.52527e-015 4.96962e-016
rhumerus -29.8253 -0.123262 -60.114
rradius 26.3189
rwrist 13.5757
rhand 12.2867 -41.8741
rfingers 7.12502
rthumb 37.2919 -67.8626
lclavicle -6.52527e-015 4.96962e-016
lhumerus -24.7956 -15.8314 64.7985
lradius 27.2332
lwrist 2.27319
lhand 14.2059 -16.1844
lfingers 7.12502
lthumb 39.1036 9.3059
rfemur 9.12976 13.0957 10.2925
rtibia -2.85947
rfoot -24.7009 -27.1736
rtoes 4.34754
lfemur 6.26275 -4.18382 -6.37194
ltibia -0.565851
lfoot -21.0046 6.99021
ltoes 21.8686
2
root 8.82527 17.8485 -27.8263 -3.2053 -86.1276 6.55694
lowerback -8.47903 1.91662 -0.176167
upperback -0.222705 2.63625 -1.95444
thorax 4.60858 1.31064 -1.60614
lowerneck 0.277953 5.07194 3.44963
upperneck 0.536502 6.74629 1.32941
head 0.184603 3.37447 -0.142987
rclavicle -2.52829e-014 1.66979e-014
rhumerus -32.7366 -4.72996 -58.2647
rradius 25.9928
rwrist 14.8545
rhand 11.3733 -41.7729
rfingers 7.12502
rthumb 36.4277 -67.9832
lclavicle -2.52829e-014 1.66979e-014
lhumerus -22.0593 -22.2956 61.8142
lradius 27.1213
lwrist 2.93749
lhand 14.627 -17.0862
lfingers 7.12502
lthumb 39.5004 8.28859
rfemur 9.02111 13.4027 10.9356
rtibia -2.77014
rfoot -24.7347 -27.4669
rtoes 3.84053
lfemur 6.25823 -4.43812 -5.81423
ltibia -0.585783
lfoot -21.2435 6.72804
ltoes 24.5616
3
root 8.83145 17.8498 -27.8295 1.0267 -86.4048 2.40273
lowerback -8.42315 2.03742 0.0850885
upperback -0.309787 2.76763 -1.90466
thorax 4.50022 1.38057 -1.68794
lowerneck 0.266427 4.9684 3.3365
upperneck 0.650264 6.60219 1.62349
head 0.205141 3.30364 -0.0356568
rclavicle 2.46058e-014 9.54166e-015
rhumerus -31.8126 -4.05223 -56.4084
rradius 25.3324
rwrist 14.9768
rhand 10.6368 -41.8514
rfingers 7.12502
rthumb 35.7301 -68.2337
lclavicle 2.46058e-014 9.54166e-015
lhumerus -21.1595 -23.0886 59.6977
lradius 26.8066
lwrist 2.82829
lhand 13.9831 -15.056
lfingers 7.12502
lthumb 38.8936 10.4944
rfemur 8.72165 13.4601 11.22
rtibia -2.61716
rfoot -24.4238 -27.4591
rtoes 3.06522
lfemur 6.24834 -4.41922 -5.42804
ltibia -0.654398
lfoot -21.4327 7.02907
ltoes 23.9114
4
root 8.83988 17.8485 -27.8313 9.94298 -86.6746 -6.25717
lowerback -8.51904 2.20273 0.573611
upperback -0.464029 2.93404 -1.80387
thorax 4.41804 1.47093 -1.83613
lowerneck 0.292604 4.82432 3.46755
upperneck 0.816633 6.4052 1.69171
head 0.251629 3.20772 -0.0346966
rclavicle -3.93469e-014 1.11319e-014
rhumerus -30.8931 -3.55165 -54.3682
rradius 24.6542
rwrist 15.3002
rhand 9.98883 -41.8579
rfingers 7.12502
rthumb 35.1157 -68.3869
lclavicle -3.93469e-014 1.11319e-014
lhumerus -20.2925 -23.8928 57.5742
lradius 26.5485
lwrist 2.78337
lhand 13.2618 -14.9438
lfingers 7.12502
lthumb 38.2131 10.7971
rfemur 8.21056 14.1222 11.834
rtibia -2.41154
rfoot -24.7587 -27.7668
rtoes 3.20673
lfemur 6.03016 -4.59487 -4.77934
ltibia -0.699464
lfoot -21.8664 7.47571
ltoes 23.2013
5
root 8.84996 17.8518 -27.8372 22.8991 -86.7456 -19.0125
lowerback -8.56633 2.23926 1.15496
upperback -0.560336 2.91471 -1.52753
thorax 4.35793 1.47 -1.87786
lowerneck 0.263304 4.83752 3.49899
upperneck 0.995092 6.41809 1.58835
head 0.315288 3.21756 -0.0669485
rclavicle 1.38031e-014 7.95139e-015
rhumerus -29.2503 -2.50709 -52.2777
rradius 23.6273
rwrist 15.4196
rhand 9.60389 -41.775
rfingers 7.12502
rthumb 34.7505 -68.389
lclavicle 1.38031e-014 7.95139e-015
lhumerus -19.5396 -23.9582 55.4481
lradius 26.264
lwrist 2.5906
lhand 12.5269 -14.5963
lfingers 7.12502
lthumb 37.5189 11.3322
rfemur 7.80643 14.8888 12.8076
rtibia -2.21774
rfoot -25.0506 -28.2684
rtoes 2.7331
lfemur 5.81864 -4.60712 -3.83309
ltibia -0.668901
lfoot -22.0969 7.48053
ltoes 24.0266
